PathFileType	4	(X/Y/Z)	C:/Users/beibeiliu/ov580/test_trc/User3\sequence.20_training_dense_right.trc
DataRate	CameraRate	NumFrames	NumMarkers	Units	OrigDataRate	OrigDataStartFrame	OrigNumFrames
120	120	24	19	mm	120	44	346
Frame#	Time	ThumbCMC			ThumbMCP			ThumbIP			ThumbTip			IndexMCP			IndexPIP			IndexTip			MiddleMCP			MiddlePIP			MiddleTip			RingMCP			RingPIP			RingTip			PinkyMCP			PinkyPIP			PinkyTip			BackHand1			BackHand2			BackHand3	
		X0	Y0	Z0	X1	Y1	Z1	X2	Y2	Z2	X3	Y3	Z3	X4	Y4	Z4	X5	Y5	Z5	X6	Y6	Z6	X7	Y7	Z7	X8	Y8	Z8	X9	Y9	Z9	X10	Y10	Z10	X11	Y11	Z11	X12	Y12	Z12	X13	Y13	Z13	X14	Y14	Z14	X15	Y15	Z15	X16	Y16	Z16	X17	Y17	Z17	X18	Y18	Z18	
43	0.358333	105.415	-18.1003	2.36429	88.5408	-29.9916	-22.3698	86.11	-42.2196	-50.9967	103.743	-53.6985	-66.1849	110.33	-6.10966	-73.4707	93.1951	-33.4989	-89.2833	95.3783	-45.1148	-60.4665	125.945	-13.235	-83.1291	110.857	-41.0471	-95.1267	114.896	-52.8867	-58.3668	142.941	-23.483	-80.2936	130.31	-53.4448	-85.6768	132.283	-58.9803	-54.548	161.868	-34.8976	-73.7542	146.077	-57.2529	-78.4647	143.851	-65.7792	-49.4353	161.972	-4.15569	-27.9573	170.003	-5.55351	-3.38308	137.384	2.64438	-9.32573	
44	0.366667	108.768	-19.2857	-0.889821	88.2947	-29.4163	-21.1117	85.7962	-42.0464	-49.7089	103.712	-54.4216	-66.445	106.936	-6.18801	-77.7813	93.1269	-30.9691	-90.2569	99.4364	-45.8143	-59.2487	123.314	-13.9404	-85.5071	113.811	-42.9505	-94.6348	116.346	-52.0712	-56.3692	141.363	-26.3114	-83.375	129.537	-54.3904	-85.5302	131.245	-58.5244	-54.1878	157.407	-34.2864	-70.8396	146.16	-59.0361	-77.3532	140.293	-64.1673	-50.3693	162.231	-2.88871	-32.4645	170.527	-7.93317	-0.113676	134.956	3.42633	-8.36498	
45	0.375	108.486	-18.488	0.300514	86.7424	-28.5979	-23.8947	82.7747	-41.2393	-52.6502	103.814	-55.1514	-69.7056	109.888	-6.19083	-73.7692	92.1829	-31.1444	-88.9312	96.7299	-43.6245	-56.4386	122.42	-12.9876	-84.6835	109.732	-40.2734	-95.5708	116.656	-52.1358	-56.4229	140.866	-24.2539	-78.8405	129.117	-53.8896	-85.5704	128.627	-59.1071	-53.3011	159.196	-35.5232	-74.0864	145.199	-55.68	-79.1277	143.258	-69.4302	-49.4846	159.823	-4.02133	-29.6836	173.527	-6.6221	-0.371813	132.176	5.3749	-10.968	
46	0.383333	105.516	-16.5306	1.39019	87.3838	-26.7234	-22.6246	83.2667	-41.097	-54.3861	101.091	-53.4279	-65.4881	105.902	-6.27539	-74.1778	94.7579	-32.6632	-88.9133	99.3221	-43.3856	-55.0939	124.324	-14.302	-84.3759	109.654	-42.4318	-93.9684	115.737	-52.2361	-56.5401	140.675	-24.4608	-79.1668	127.982	-53.9347	-85.782	127.322	-58.7151	-53.0301	159.877	-37.215	-75.1307	144.676	-62.2615	-76.1701	138.762	-67.0214	-50.0912	163.913	-7.02686	-34.4706	172.766	-6.59862	-5.16447	136.976	4.38659	-11.7531	
47	0.391667	110.73	-15.4054	3.49239	84.7228	-24.5618	-22.5098	80.5463	-38.1309	-50.741	102.614	-51.1635	-64.902	106.255	-5.44852	-73.1654	95.6721	-34.0434	-88.4032	93.9102	-42.0236	-56.0947	126.254	-15.9079	-86.7658	109.64	-44.619	-92.334	113.33	-51.3637	-53.0113	142.352	-25.6363	-79.5701	130.052	-56.0797	-85.2497	126.643	-59.8087	-54.4308	158.185	-37.8699	-72.8897	141.311	-58.1372	-77.1784	135.916	-68.6581	-50.5997	166.206	-5.99081	-31.37	171.962	-6.37403	-0.868826	137.987	5.10795	-8.34819	
48	0.4	108.635	-11.648	2.83215	83.8624	-20.5235	-20.7618	80.8212	-35.173	-51.6847	95.9785	-50.4545	-64.3055	108.678	-6.95387	-79.5484	90.5775	-28.8358	-88.6682	94.8367	-41.8437	-57.6368	126.506	-16.5694	-87.4115	107.59	-41.6629	-93.4431	111.079	-51.0492	-53.9906	139.919	-25.8997	-81.2166	127.534	-52.8902	-88.3435	126.072	-58.8948	-50.8573	158.308	-39.8147	-71.0868	142.836	-63.1671	-78.047	133.519	-69.3874	-51.0789	166.924	-8.89532	-30.2912	174.882	-8.31628	-4.80622	139.79	6.30647	-10.7481	
49	0.408333	111.869	-7.28255	-0.757284	86.3816	-14.382	-26.0391	78.3608	-29.6896	-48.6121	95.4842	-48.2582	-63.6984	112.27	-5.97815	-77.1599	92.0276	-30.8099	-86.3949	94.0338	-37.2136	-54.2267	125.559	-14.4287	-84.1087	108.065	-44.8686	-92.4087	108.102	-50.519	-55.8223	141.985	-31.5486	-82.9893	122.107	-53.2655	-87.6218	119.811	-59.7638	-51.184	154.821	-41.4287	-69.2741	138.52	-64.4219	-76.681	128.009	-71.1198	-51.4121	167.64	-11.4652	-33.9812	172.84	-11.3471	-5.53468	144.216	7.58895	-12.9713	
50	0.416667	111.254	0.80393	-3.38258	85.1066	-6.3241	-24.4066	78.0934	-22.7055	-47.7447	91.9631	-45.7239	-62.9939	113.966	-3.49718	-81.3304	90.3697	-25.1149	-89.9436	87.5871	-33.336	-58.1574	124.96	-18.6427	-89.8025	103.013	-39.4458	-93.5909	105.82	-50.0403	-55.1872	141.145	-35.9123	-82.5812	119.218	-55.7814	-86.4194	115.021	-59.7602	-50.017	150.621	-47.7551	-69.6757	128.362	-62.81	-75.2242	123.63	-72.6356	-46.9366	166.207	-14.6471	-37.4485	175.521	-13.7941	-8.31011	149.133	5.45646	-15.1368	
51	0.425	117.243	8.38952	-1.99986	92.5426	2.6702	-28.1074	81.3969	-14.5698	-47.4071	89.8396	-39.3794	-58.8626	120.985	-4.78167	-80.5075	95.2626	-20.9522	-92.7873	83.2936	-24.5545	-59.9868	128.653	-21.2052	-86.5268	100.527	-37.9446	-93.6461	97.1952	-40.3545	-51.1604	138.894	-41.5191	-80.4341	108.429	-55.3531	-81.8219	106.916	-55.8156	-47.5514	144.276	-52.8724	-69.1443	123.365	-67.7065	-72.335	112.326	-66.9914	-40.4518	167.967	-21.9399	-38.4196	179.183	-23.3915	-8.19131	154.776	6.38771	-19.2473	
52	0.433333	126.809	14.0145	-7.91136	97.9171	12.2752	-29.6432	85.7729	-6.99424	-49.8981	86.5564	-31.9321	-56.5728	122.624	-8.489	-85.6096	92.3085	-15.9907	-93.2526	85.1161	-19.9292	-59.0112	127.874	-26.664	-90.6322	96.9695	-33.8705	-92.9415	96.4262	-36.1157	-52.381	130.931	-43.2118	-81.5002	103.165	-53.7007	-79.8353	100.786	-48.709	-45.0999	138.309	-56.4652	-65.8961	111.656	-63.7256	-69.0929	104.032	-60.4876	-39.6752	169.372	-31.8097	-38.2608	177.604	-26.8592	-6.73471	161.02	-0.497865	-23.1447	
53	0.441667	137.627	16.776	-11.3784	108.287	21.923	-33.4169	91.0433	4.41892	-50.3101	90.408	-27.3859	-54.8999	128.701	-8.66079	-84.9392	99.3852	-14.9897	-96.2952	86.1747	-11.9266	-65.7664	128.666	-25.8273	-89.8216	93.9338	-32.4528	-91.1422	94.9383	-28.8453	-53.5598	126.523	-47.659	-80.9972	97.8819	-50.9014	-78.2356	96.8767	-36.5482	-45.2725	132.316	-61.0918	-63.173	105.036	-64.0731	-66.3596	97.8286	-51.7919	-39.4671	168.727	-38.3987	-36.245	178.054	-34.4117	-9.29034	168.193	-2.29787	-27.4872	
54	0.45	149.406	14.2399	-14.4092	124.891	24.6832	-35.5355	102.503	9.03674	-55.1374	95.0221	-14.807	-52.7493	131.479	-13.22	-89.174	99.8592	-8.91992	-96.0593	90.4077	-0.908944	-67.9593	128.866	-29.3644	-91.7452	95.1408	-26.0064	-92.3442	95.2261	-16.3492	-57.1018	122.853	-44.6689	-79.6722	94.2675	-45.509	-76.8392	94.2918	-31.114	-46.6161	124.364	-59.721	-63.8684	98.1763	-53.9997	-63.7047	97.4687	-42.7556	-33.0609	164.022	-42.7745	-38.4148	176.303	-43.0715	-8.32615	173.631	-10.1579	-32.2002	
55	0.458333	160.78	11.2484	-17.9042	140.371	23.9359	-42.1844	115.998	16.8255	-56.5028	104.697	-9.86995	-50.4575	136.754	-12.5832	-89.2591	106.928	-6.82266	-97.5524	97.4614	6.90235	-71.3351	130.01	-31.2262	-90.349	99.4142	-21.0895	-95.7598	98.8626	-10.2823	-56.3353	121.527	-47.0968	-75.1526	92.5577	-31.8056	-76.7593	95.7921	-23.0392	-44.452	120.242	-56.9701	-58.4623	92.7872	-47.467	-61.2923	95.4269	-30.852	-36.5624	161.391	-50.1378	-37.4096	173.336	-48.3964	-6.95401	177.936	-15.7861	-32.6964	
56	0.466667	171.343	8.31737	-21.0291	153.465	25.2011	-45.2536	128.098	18.3305	-59.976	110.717	-0.956777	-51.9714	137.738	-15.6289	-88.7783	113.539	-2.38106	-100.926	105.777	15.7898	-71.7454	128.692	-30.7138	-88.8438	100.325	-18.0318	-96.2145	100.287	-0.538837	-60.1115	119.672	-40.7756	-74.0119	89.9527	-28.5751	-75.6224	95.8695	-14.6834	-46.2811	115.334	-50.1931	-56.7386	89.5488	-38.5276	-60.0253	94.7482	-24.7934	-32.7559	156.08	-52.4975	-33.0982	170.67	-52.4973	-8.02463	177.937	-25.185	-33.0611	
57	0.475	179.039	5.71944	-21.9075	163.709	22.9423	-50.1244	134.551	21.9924	-65.4054	118.581	7.22355	-53.4156	142.028	-13.9566	-88.9696	114.479	0.452154	-101.029	112.812	18.5985	-71.8001	124.739	-29.7681	-87.0934	98.963	-8.49476	-94.1767	103.279	5.40328	-59.395	115.051	-39.5153	-71.4965	90.5975	-21.1037	-76.7226	100.788	-2.57735	-48.8541	108.217	-47.466	-56.0022	91.3544	-27.4884	-60.4836	98.4199	-12.1665	-31.2479	154.535	-50.6282	-33.8535	165.237	-54.6549	-9.87186	177.791	-30.0098	-33.4974	
58	0.483333	182.743	2.03126	-25.3583	173.565	22.6371	-49.3847	147.08	26.8083	-66.2133	123.192	10.8693	-54.243	142.239	-14.122	-88.066	119.681	6.91742	-102.567	120.733	23.8905	-75.0776	125.969	-26.433	-86.0526	99.1361	-3.66859	-91.798	112.198	13.2374	-57.2855	116.562	-32.4687	-73.5479	91.0061	-13.6678	-73.7187	102.125	2.67914	-49.1307	106.895	-41.8063	-53.7889	89.7571	-20.2287	-58.4986	97.908	-5.24586	-31.8519	149.309	-50.8926	-30.8744	164.827	-55.3017	-5.06153	179.203	-32.2516	-32.3734	
59	0.491667	185.291	-0.0648565	-24.4797	180.42	22.0842	-52.2138	150.641	22.2242	-64.8775	128.921	15.4926	-56.15	146.647	-11.4749	-90.7277	123.075	6.21963	-103.195	122.982	24.5148	-74.4863	124.712	-22.2717	-89.5957	103.487	2.08361	-93.7785	113.539	15.9834	-59.7497	113.495	-30.6595	-73.8916	92.2379	-7.70479	-75.0974	104.664	5.25112	-47.3224	106.568	-37.7862	-52.6591	89.6258	-15.4934	-58.1174	101.762	-2.22472	-35.1332	146.743	-48.3712	-36.06	162.84	-55.0876	-6.25206	178.971	-34.7485	-32.1562	
60	0.5	191.438	0.74878	-23.312	183.14	17.6503	-49.9701	157.139	25.2482	-66.5566	129.944	17.4422	-57.5994	145.728	-13.5557	-91.8102	126.516	11.1748	-103.515	131.096	29.3128	-75.588	130.424	-20.9129	-88.4178	110.422	5.10225	-97.5351	119.25	15.9612	-56.576	112.66	-26.5717	-76.5991	96.4046	-3.55641	-75.7424	110.403	7.92149	-47.0615	105.817	-33.4393	-53.3009	96.9688	-6.89767	-58.9464	103.573	0.0315271	-32.0976	146.364	-49.5833	-34.8662	160.71	-55.0192	-7.67112	178.27	-34.9204	-35.6202	
61	0.508333	191.375	-1.16096	-26.2071	189.367	20.1957	-51.345	160.544	26.487	-68.6082	137.732	16.6583	-55.8312	152.368	-11.9941	-89.5043	127.833	9.03278	-103.824	134.222	29.5649	-80.8591	129.451	-20.634	-86.5959	112.821	8.63079	-97.4613	124.12	20.5995	-61.6333	118.581	-22.9647	-76.6804	100.411	-0.573725	-80.0809	112.135	11.37	-49.2549	109.609	-27.8889	-58.1981	96.0618	-6.38551	-59.6343	112.512	2.90781	-30.963	145.452	-46.936	-35.6158	159.419	-53.8003	-8.59477	181.722	-32.9532	-35.0222	
62	0.516667	195.3	-2.89219	-24.9959	191.711	15.6934	-51.1519	162.592	22.38	-69.9022	139.269	16.014	-57.2663	152.368	-13.2412	-88.2232	132.483	5.7352	-105.446	138.61	30.4754	-80.6054	130.003	-19.2146	-92.5773	116.27	8.79266	-98.8474	126.289	19.3499	-59.9384	118.248	-23.5788	-74.7639	104.587	5.65194	-79.2481	119.763	11.6935	-47.7114	108.521	-28.2222	-56.2513	100.51	-1.13352	-60.1311	115.844	4.01968	-33.6733	148.24	-46.5881	-33.4444	158.826	-55.0008	-5.74322	179.248	-33.5465	-34.3878	
63	0.525	196.767	-3.97931	-25.8473	194.126	12.4317	-51.9047	168.992	21.2816	-70.4696	140.367	14.4394	-56.9145	154.057	-14.5362	-89.0391	139.198	10.3144	-108.709	140.118	27.2605	-78.9811	133.579	-19.4146	-90.3492	119.035	6.30711	-100.231	128.251	18.9691	-59.3166	120.165	-23.4391	-74.9466	105.258	2.49736	-78.8039	119.431	11.0306	-50.5544	110.581	-27.0901	-57.3677	103.77	-2.75231	-63.5398	114.12	5.84088	-34.6562	147.887	-48.3516	-37.0983	160.11	-53.9566	-5.61888	182.267	-33.4919	-34.426	
64	0.533333	198.085	-6.66097	-19.5973	197.149	10.5672	-53.868	174.983	21.1917	-70.0451	145.602	13.3711	-58.932	161.309	-15.0857	-90.8195	142.387	10.3514	-108.365	144.623	26.3957	-80.0074	139.443	-19.2236	-92.8971	120.591	5.72476	-99.7896	132.589	21.1278	-64.9839	123.004	-23.4179	-77.2073	106.902	5.22342	-77.7789	122.89	12.0256	-52.9811	114.008	-26.1505	-59.9086	104.68	-0.488093	-63.3606	113.692	5.62489	-34.756	146.959	-48.7667	-36.9663	159.027	-55.6093	-6.6904	181.961	-36.619	-31.3106	
65	0.541667	199.856	-7.26414	-21.0814	198.977	7.45138	-49.7831	178.182	17.229	-70.3619	151.171	14.1476	-61.5669	162.182	-16.6123	-90.0332	141.308	5.88967	-106.208	146.024	24.9601	-82.289	136.825	-22.3735	-94.394	123.676	4.10129	-101.709	134.583	20.4834	-68.1201	126.158	-22.0893	-80.5607	112.814	4.43073	-82.0947	128.816	10.9819	-53.2891	115.479	-25.7869	-62.4372	105.772	0.0833016	-62.2726	117.479	4.2831	-37.9955	149.652	-49.7135	-34.1122	161.093	-53.7925	-5.17047	181.65	-39.929	-33.187	
66	0.55	201.003	-8.32389	-20.7127	201.705	6.14359	-48.4854	178.64	14.4807	-72.741	153.34	10.999	-61.8744	160.757	-17.2506	-92.0288	147.647	4.71861	-110.012	151.539	24.5354	-79.0778	142.162	-23.3023	-91.9598	126.274	4.34214	-102.468	135.716	16.8722	-64.1579	124.931	-23.6736	-82.4277	112.74	4.72927	-80.1466	128.397	10.0776	-53.9617	116.299	-28.0514	-62.5809	107.042	-4.0275	-66.7587	116.548	1.77026	-35.7724	147.821	-51.9148	-37.2192	158.307	-54.7374	-6.97468	183.287	-39.1506	-29.5448	
